<?xml version="1.0" encoding="utf-8"?>
<!-- Generator: Adobe Illustrator 24.2.1, SVG Export Plug-In . SVG Version: 6.00 Build 0)  -->
<svg version="1.1"
	 id="svg8" inkscape:export-filename="/home/tebogo/Documents/Mokgobullb.jpg.png" inkscape:export-xdpi="96" inkscape:export-ydpi="96" inkscape:version="0.92.5 (2060ec1f9f, 2020-04-08)" sodipodi:docname="Mokgobullb.svg" xmlns:cc="http://creativecommons.org/ns#" xmlns:dc="http://purl.org/dc/elements/1.1/" xmlns:inkscape="http://www.inkscape.org/namespaces/inkscape" xmlns:rdf="http://www.w3.org/1999/02/22-rdf-syntax-ns#" xmlns:sodipodi="http://sodipodi.sourceforge.net/DTD/sodipodi-0.dtd" xmlns:svg="http://www.w3.org/2000/svg"
	 xmlns="http://www.w3.org/2000/svg" xmlns:xlink="http://www.w3.org/1999/xlink" x="0px" y="0px" viewBox="0 0 595.3 841.9"
	 style="enable-background:new 0 0 595.3 841.9;" xml:space="preserve">
<style type="text/css">
	.st0{fill:#00FF00;}
	.st1{fill:#008000;}
	.st2{font-family:'Arial-BoldMT';}
	.st3{font-size:142.4332px;}
	.st4{font-family:'ArialMT';}
	.st5{font-size:42.336px;}
	.st6{font-size:42.0789px;}
	.st7{font-size:10.9682px;}
	.st8{fill:#FF0000;}
	.st9{fill:#00D000;}
	.st10{fill:#008C00;}
	.st11{fill:#004F00;}
	.st12{font-size:145.1233px;}
	.st13{fill:#FF1D16;}
	.st14{fill:#D00000;}
	.st15{fill:#A40000;}
	.st16{font-size:11.2118px;}
</style>
<sodipodi:namedview  bordercolor="#666666" borderopacity="1.0" id="base" inkscape:current-layer="layer1" inkscape:cx="156.38663" inkscape:cy="511.21136" inkscape:document-units="mm" inkscape:pageopacity="0.0" inkscape:pageshadow="2" inkscape:window-height="708" inkscape:window-maximized="1" inkscape:window-width="1366" inkscape:window-x="0" inkscape:window-y="28" inkscape:zoom="0.49497475" pagecolor="#ffffff" showgrid="false">
	</sodipodi:namedview>
<rect id="rect12" x="30.9" y="31.3" class="st0" width="23" height="81.5"/>
<g id="g129" transform="translate(-17.937179,-35.254066)">
	<rect id="rect29" x="48.9" y="66.5" class="st1" width="23.2" height="85"/>
	
		<rect id="rect33" x="64.1" y="128.5" inkscape:transform-center-x="-23.887203" inkscape:transform-center-y="-3.9422241" class="st1" width="38.3" height="23">
	</rect>
</g>
<g id="g133" transform="translate(-17.937179,-35.254066)">
	<rect id="rect52" x="94.9" y="66.5" class="st1" width="23.2" height="85"/>
	
		<rect id="rect54" x="111.5" y="128.5" inkscape:transform-center-x="-22.550861" inkscape:transform-center-y="-3.9422241" class="st1" width="36.2" height="23">
	</rect>
</g>
<g id="g125" transform="translate(-17.937179,-35.254066)">
	<path id="rect10" inkscape:connector-curvature="0" d="M26,47.6h23v80.9H26L26,47.6z"/>
	<path id="rect14" inkscape:connector-curvature="0" d="M72.1,47.6h23v80.9h-23V47.6z"/>
	<path id="rect18" inkscape:connector-curvature="0" d="M118.2,47.6h23v80.9h-23V47.6z"/>
	
		<path id="rect58" inkscape:connector-curvature="0" inkscape:transform-center-x="-21.313939" inkscape:transform-center-y="4.015997" d="
		M42.6,70.5v-23h34.8v23H42.6z"/>
	
		<path id="rect60" inkscape:connector-curvature="0" inkscape:transform-center-x="-20.642014" inkscape:transform-center-y="4.015997" d="
		M89,70.5v-23h33.5v23H89z"/>
</g>
<text transform="matrix(0.7747 0 0 1 112.6709 116.2422)" class="st1 st2 st3">B</text>
<text transform="matrix(1 0 0 1 198.4473 77.7578)" class="st4 st5">MOKGOBU</text>
<text transform="matrix(0.887 0 0 1 428.417 77.5371)" class="st1 st2 st6">LLB</text>
<text transform="matrix(1.2007 0 0 1 504.7578 55.7559)" class="st4 st7">(PTY) Ltd.</text>
<rect id="rect162" x="30.9" y="199.1" class="st0" width="23" height="81.5"/>
<g id="g168" transform="translate(-17.937179,23.956586)">
	<rect id="rect164" x="48.9" y="175.1" class="st8" width="23.2" height="85"/>
	
		<rect id="rect166" x="64.1" y="237.1" inkscape:transform-center-x="-23.887203" inkscape:transform-center-y="-3.9422241" class="st8" width="38.3" height="23">
	</rect>
</g>
<g id="g174" transform="translate(-17.937179,23.956586)">
	<rect id="rect170" x="94.9" y="175.1" class="st8" width="23.2" height="85"/>
	
		<rect id="rect172" x="111.5" y="237.1" inkscape:transform-center-x="-22.550861" inkscape:transform-center-y="-3.9422241" class="st8" width="36.2" height="23">
	</rect>
</g>
<g id="g186" transform="translate(-17.937179,23.956586)">
	<path id="path176" inkscape:connector-curvature="0" d="M26,156.2h23v80.9H26L26,156.2z"/>
	<path id="path178" inkscape:connector-curvature="0" d="M72.1,156.2h23v80.9h-23V156.2z"/>
	<path id="path180" inkscape:connector-curvature="0" d="M118.2,156.2h23v80.9h-23V156.2z"/>
	
		<path id="path182" inkscape:connector-curvature="0" inkscape:transform-center-x="-21.313939" inkscape:transform-center-y="4.015997" d="
		M42.6,179.2v-23h34.8v23H42.6z"/>
	
		<path id="path184" inkscape:connector-curvature="0" inkscape:transform-center-x="-20.642014" inkscape:transform-center-y="4.015997" d="
		M89,179.2v-23h33.5v23H89z"/>
</g>
<text transform="matrix(0.7747 0 0 1 112.6709 284.084)" class="st8 st2 st3">B</text>
<text transform="matrix(1 0 0 1 198.4473 245.5986)" class="st4 st5">MOKGOBU</text>
<text transform="matrix(0.887 0 0 1 428.417 245.3789)" class="st1 st2 st6">LLB</text>
<text transform="matrix(1.2007 0 0 1 504.7578 223.5967)" class="st4 st7">(PTY) Ltd.</text>
<rect id="rect204" x="30.9" y="369.2" inkscape:export-xdpi="96" inkscape:export-ydpi="96" class="st0" width="23" height="81.5">
</rect>
<g id="g210" transform="translate(-17.937179,83.969047)" inkscape:export-xdpi="96" inkscape:export-ydpi="96">
	<rect id="rect206" x="48.9" y="285.2" class="st9" width="23.2" height="85"/>
	
		<rect id="rect208" x="64.1" y="347.2" inkscape:transform-center-x="-23.887203" inkscape:transform-center-y="-3.9422241" class="st9" width="38.3" height="23">
	</rect>
</g>
<g id="g216" transform="translate(-17.937179,83.969047)" inkscape:export-xdpi="96" inkscape:export-ydpi="96">
	<rect id="rect212" x="94.9" y="285.2" class="st10" width="23.2" height="85"/>
	
		<rect id="rect214" x="111.5" y="347.2" inkscape:transform-center-x="-22.550861" inkscape:transform-center-y="-3.9422241" class="st10" width="36.2" height="23">
	</rect>
</g>
<g id="g228" transform="translate(-17.937179,83.969047)" inkscape:export-xdpi="96" inkscape:export-ydpi="96">
	<path id="path218" inkscape:connector-curvature="0" d="M26,266.3h23v80.9H26L26,266.3z"/>
	<path id="path220" inkscape:connector-curvature="0" d="M72.1,266.3h23v80.9h-23V266.3z"/>
	<path id="path222" inkscape:connector-curvature="0" d="M118.2,266.3h23v80.9h-23V266.3z"/>
	
		<path id="path224" inkscape:connector-curvature="0" inkscape:transform-center-x="-21.313939" inkscape:transform-center-y="4.015997" d="
		M42.6,289.3v-23h34.8v23H42.6z"/>
	
		<path id="path226" inkscape:connector-curvature="0" inkscape:transform-center-x="-20.642014" inkscape:transform-center-y="4.015997" d="
		M89,289.3v-23h33.5v23H89z"/>
</g>
<text transform="matrix(0.7572 0 0 1 112.6709 454.0801)" class="st11 st2 st12">B</text>
<text transform="matrix(1 0 0 1 198.4473 415.7129)" class="st4 st5">MOKGOBU</text>
<text transform="matrix(0.887 0 0 1 428.417 415.4941)" class="st1 st2 st6">LLB</text>
<text transform="matrix(1.2007 0 0 1 504.7578 393.7109)" class="st4 st7">(PTY) Ltd.</text>
<rect id="rect1051" x="30.9" y="544.4" class="st0" width="23" height="81.5"/>
<g id="g1057" transform="translate(-17.937179,145.76068)">
	<rect id="rect1053" x="48.9" y="398.6" class="st13" width="23.2" height="85"/>
	
		<rect id="rect1055" x="64.1" y="460.6" inkscape:transform-center-x="-23.887203" inkscape:transform-center-y="-3.9422241" class="st13" width="38.3" height="23">
	</rect>
</g>
<g id="g1063" transform="translate(-17.937179,145.76068)">
	<rect id="rect1059" x="94.9" y="398.6" class="st14" width="23.2" height="85"/>
	
		<rect id="rect1061" x="111.5" y="460.6" inkscape:transform-center-x="-22.550861" inkscape:transform-center-y="-3.9422241" class="st14" width="36.2" height="23">
	</rect>
</g>
<g id="g1075" transform="translate(-17.937179,145.76068)">
	<path id="path1065" inkscape:connector-curvature="0" d="M26,379.7h23v80.9H26L26,379.7z"/>
	<path id="path1067" inkscape:connector-curvature="0" d="M72.1,379.7h23v80.9h-23V379.7z"/>
	<path id="path1069" inkscape:connector-curvature="0" d="M118.2,379.7h23v80.9h-23V379.7z"/>
	
		<path id="path1071" inkscape:connector-curvature="0" inkscape:transform-center-x="-21.313939" inkscape:transform-center-y="4.015997" d="
		M42.6,402.6v-23h34.8v23H42.6z"/>
	
		<path id="path1073" inkscape:connector-curvature="0" inkscape:transform-center-x="-20.642014" inkscape:transform-center-y="4.015997" d="
		M89,402.6v-23h33.5v23H89z"/>
</g>
<text transform="matrix(0.7747 0 0 1 112.6709 629.3555)" class="st15 st2 st3">B</text>
<text transform="matrix(1 0 0 1 198.4473 590.8701)" class="st4 st5">MOKGOBU</text>
<text transform="matrix(0.887 0 0 1 428.417 590.6504)" class="st1 st2 st6">LLB</text>
<text transform="matrix(1.2007 0 0 1 504.7578 568.8682)" class="st4 st7">(PTY) Ltd.</text>
<rect id="rect1093" x="30.9" y="722.8" class="st0" width="23" height="81.5"/>
<g id="g1099" transform="translate(-17.937179,208.70119)">
	<rect id="rect1095" x="48.9" y="514.1" class="st9" width="23.2" height="85"/>
	
		<rect id="rect1097" x="64.1" y="576" inkscape:transform-center-x="-23.887203" inkscape:transform-center-y="-3.9422241" class="st9" width="38.3" height="23">
	</rect>
</g>
<g id="g1105" transform="translate(-17.937179,208.70119)">
	<rect id="rect1101" x="94.9" y="514.1" class="st10" width="23.2" height="85"/>
	
		<rect id="rect1103" x="111.5" y="576" inkscape:transform-center-x="-22.550861" inkscape:transform-center-y="-3.9422241" class="st10" width="36.2" height="23">
	</rect>
</g>
<g id="g1117" transform="translate(-17.937179,208.70119)">
	<path id="path1107" inkscape:connector-curvature="0" d="M26,495.1h23V576H26L26,495.1z"/>
	<path id="path1109" inkscape:connector-curvature="0" d="M72.1,495.1h23V576h-23V495.1z"/>
	<path id="path1111" inkscape:connector-curvature="0" d="M118.2,495.1h23V576h-23V495.1z"/>
	
		<path id="path1113" inkscape:connector-curvature="0" inkscape:transform-center-x="-21.313939" inkscape:transform-center-y="4.015997" d="
		M42.6,518.1v-23h34.8v23H42.6z"/>
	
		<path id="path1115" inkscape:connector-curvature="0" inkscape:transform-center-x="-20.642014" inkscape:transform-center-y="4.015997" d="
		M89,518.1v-23h33.5v23H89z"/>
</g>
<text transform="matrix(0.7747 0 0 1 112.6709 807.7695)" class="st11 st2 st3">B</text>
<text transform="matrix(1.1676 0 0 1 197.752 769.2842)" class="st4 st5">Mokgobu</text>
<text transform="matrix(0.887 0 0 1 428.417 769.0645)" class="st1 st2 st6">LLB</text>
<text transform="matrix(1.2007 0 0 1 504.7578 747.2822)" class="st4 st7">(PTY) Ltd.</text>
<text transform="matrix(1.082 0 0 1 201.6758 434.0459)" class="st4 st16">&quot;My own Hand-Work with Brilliant Designs For Less Charge.&quot;</text>
<text transform="matrix(1.082 0 0 1 201.6758 608.6895)" class="st4 st16">&quot;My own Hand-Work with Brilliant Designs For Less Charge.&quot;</text>
</svg>
